<svg width="340" height="86" viewBox="0 0 340 86" fill="none" xmlns="http://www.w3.org/2000/svg">
<path fill-rule="evenodd" clip-rule="evenodd" d="M36 86C31.1187 86 26.4643 85.0285 22.2196 83.2683C22.0656 83.2044 21.9121 83.1395 21.7591 83.0735C21.606 83.0075 21.4534 82.9405 21.3014 82.8724C21.5173 82.371 22.0968 82.1348 22.6027 82.3446C26.7281 84.0553 31.2525 85 36 85H103C103.552 85 104 85.4477 104 86H36ZM318.699 82.8724C318.483 82.371 317.903 82.1348 317.397 82.3446C313.272 84.0553 308.748 85 304 85H237C236.448 85 236 85.4477 236 86H304C308.881 86 313.536 85.0285 317.78 83.2683C317.934 83.2044 318.088 83.1395 318.241 83.0736C318.394 83.0075 318.547 82.9405 318.699 82.8724ZM340 45.5C339.448 45.5 339 45.9477 339 46.5V50C339 54.7475 338.055 59.2719 336.345 63.3973C336.135 63.9032 336.371 64.4827 336.872 64.6986C336.94 64.5466 337.008 64.394 337.074 64.2409C337.139 64.0879 337.204 63.9344 337.268 63.7804C339.029 59.5357 340 54.8813 340 50V45.5ZM336.872 21.3014C336.371 21.5174 336.135 22.0968 336.345 22.6027C338.055 26.7281 339 31.2525 339 36V39.5C339 40.0523 339.448 40.5 340 40.5V36C340 31.1187 339.029 26.4643 337.268 22.2196C337.204 22.0656 337.139 21.9121 337.074 21.7591C337.008 21.606 336.94 21.4534 336.872 21.3014ZM236 0C236 0.552285 236.448 1 237 1H304C308.748 1 313.272 1.9447 317.397 3.65543C317.903 3.86519 318.483 3.62897 318.699 3.12763C318.547 3.05954 318.394 2.99248 318.241 2.92644C318.088 2.8605 317.934 2.79558 317.78 2.7317C313.536 0.971501 308.881 0 304 0H236ZM104 0C104 0.552285 103.552 1 103 1H36C31.2525 1 26.7281 1.9447 22.6027 3.65542C22.0968 3.86519 21.5173 3.62897 21.3014 3.12762C21.4534 3.05954 21.606 2.99248 21.7591 2.92645C21.9121 2.8605 22.0656 2.79558 22.2196 2.7317C26.4643 0.971501 31.1187 0 36 0H104ZM0 40.5C0.552285 40.5 1 40.0523 1 39.5V36C1 31.2525 1.9447 26.7281 3.65543 22.6027C3.86519 22.0968 3.62897 21.5173 3.12763 21.3014C3.05954 21.4534 2.99248 21.606 2.92645 21.7591C2.8605 21.9121 2.79558 22.0656 2.7317 22.2196C0.971502 26.4643 0 31.1187 0 36V40.5ZM3.12762 64.6986C3.62897 64.4827 3.86519 63.9032 3.65542 63.3973C1.9447 59.2719 1 54.7475 1 50V46.5C1 45.9477 0.552285 45.5 0 45.5V50C0 54.8813 0.971501 59.5357 2.7317 63.7804C2.79558 63.9344 2.8605 64.0879 2.92645 64.2409C2.99248 64.394 3.05954 64.5466 3.12762 64.6986Z" fill="black"/>
<defs>
<linearGradient id="paint0_linear_646_2" x1="0" y1="31" x2="276" y2="31" gradientUnits="userSpaceOnUse">
<stop stop-color="#65F0F4"/>
<stop offset="1" stop-color="#3957ED"/>
</linearGradient>
</defs>
</svg>
