<svg width="586" height="177" viewBox="0 0 586 177" fill="none" xmlns="http://www.w3.org/2000/svg">
<path d="M0 0H586V177H0V0Z" fill="url(#paint0_linear_326_1174)"/>
<path d="M92.9266 24.9111H69.6428V150.778H81.3628V36.0818H92.9266V24.9111Z" fill="black"/>
<path d="M115.271 150.778H126.835L118.866 24.9111H99.8011L91.8315 150.778H102.77L105.427 97.5991H112.771L115.271 150.778ZM106.052 87.0578L108.552 36.7111H109.802L112.146 87.0578H106.052Z" fill="black"/>
<path d="M145.668 151.879C155.825 151.879 160.982 145.743 160.982 130.954V98.2284C160.982 88.4738 158.169 83.9111 151.45 81.7084V80.9218C158.169 79.0338 160.982 72.4258 160.982 62.0418V44.7351C160.982 29.9458 156.606 23.8098 145.98 23.8098C135.823 23.8098 130.666 29.9458 130.666 44.7351V68.0204H142.386V40.9591C142.386 36.7111 143.636 34.9804 145.824 34.9804C148.012 34.9804 149.262 36.7111 149.262 40.9591V69.4364C149.262 74.3138 148.012 75.8871 144.574 75.8871H136.292V86.5858H144.574C148.012 86.5858 149.262 88.1591 149.262 92.8791V134.73C149.262 138.978 148.012 140.708 145.824 140.708C143.636 140.708 142.386 138.978 142.386 134.73V94.4524H130.666V130.954C130.666 145.743 135.042 151.879 145.668 151.879Z" fill="black"/>
<path d="M215.375 24.9111L209.124 102.004H208.187L201.936 24.9111H183.028V150.778H194.748L193.341 45.2071H194.279L203.342 150.778H213.187L222.094 45.2071H223.188L221.782 150.778H233.502V24.9111H215.375Z" fill="black"/>
<path d="M262.077 150.778H273.64L265.671 24.9111H246.606L238.637 150.778H249.575L252.232 97.5991H259.576L262.077 150.778ZM252.857 87.0578L255.357 36.7111H256.607L258.951 87.0578H252.857Z" fill="black"/>
<path d="M292.927 24.9111H278.863V150.778H290.583V75.7298H292.458C303.866 75.7298 309.179 69.5938 309.179 55.5911V45.0498C309.179 31.0471 304.803 24.9111 292.927 24.9111ZM297.459 59.3671C297.459 64.0871 296.052 65.6604 292.615 65.6604H290.583V36.0818H292.615C296.052 36.0818 297.459 37.6551 297.459 42.5324V59.3671Z" fill="black"/>
<path d="M339.084 71.0098L349.242 24.9111H337.209L326.896 79.6631H325.645L327.208 51.3431V24.9111H315.488V150.778H327.208V101.847L330.021 90.0471H330.959L331.74 100.903L338.772 150.778H350.804L339.084 71.0098Z" fill="black"/>
<path d="M366.275 139.607V86.7431H377.057V75.5724H366.275V36.0818H377.839V24.9111H354.555V150.778H378.62V139.607H366.275Z" fill="black"/>
<path d="M411.343 24.9111H380.09V36.0818H389.935V150.778H401.655V36.0818H411.343V24.9111Z" fill="black"/>
<path d="M451.683 24.9111H437.463L426.212 118.367H425.118L427.306 24.9111H416.054V150.778H430.275L441.526 57.3218H442.62L440.276 150.778H451.683V24.9111Z" fill="black"/>
<path d="M480.301 24.9111V75.5724H472.487V24.9111H460.767V150.778H472.487V86.7431H480.301V150.778H492.021V24.9111H480.301Z" fill="black"/>
<path d="M524.339 24.9111H501.055V150.778H512.775V36.0818H524.339V24.9111Z" fill="black"/>
<defs>
<linearGradient id="paint0_linear_326_1174" x1="-4.11069e-09" y1="91.0286" x2="1154.32" y2="85.9823" gradientUnits="userSpaceOnUse">
<stop stop-color="#65F0F4"/>
<stop offset="1" stop-color="#6584F4"/>
</linearGradient>
</defs>
</svg>
