<svg width="116" height="35" viewBox="0 0 116 35" fill="none" xmlns="http://www.w3.org/2000/svg">
<path d="M0 0H116V35H0V0Z" fill="url(#paint0_linear_279_577)"/>
<path d="M18.395 4.92593H13.786V29.8148H16.106V7.13481H18.395V4.92593Z" fill="black"/>
<path d="M22.8182 29.8148H25.1073L23.5297 4.92593H19.7558L18.1782 29.8148H20.3436L20.8694 19.2993H22.3233L22.8182 29.8148ZM20.9932 17.2148L21.4881 7.25926H21.7356L22.1996 17.2148H20.9932Z" fill="black"/>
<path d="M28.8353 30.0326C30.8459 30.0326 31.8667 28.8193 31.8667 25.8948V19.4237C31.8667 17.4948 31.3099 16.5926 29.9798 16.157V16.0015C31.3099 15.6281 31.8667 14.3215 31.8667 12.2681V8.84592C31.8667 5.92148 31.0006 4.70815 28.8971 4.70815C26.8865 4.70815 25.8657 5.92148 25.8657 8.84592V13.4504H28.1857V8.09926C28.1857 7.25926 28.4331 6.91703 28.8662 6.91703C29.2993 6.91703 29.5467 7.25926 29.5467 8.09926V13.7304C29.5467 14.6948 29.2993 15.0059 28.6187 15.0059H26.9793V17.1215H28.6187C29.2993 17.1215 29.5467 17.4326 29.5467 18.3659V26.6415C29.5467 27.4815 29.2993 27.8237 28.8662 27.8237C28.4331 27.8237 28.1857 27.4815 28.1857 26.6415V18.677H25.8657V25.8948C25.8657 28.8193 26.7318 30.0326 28.8353 30.0326Z" fill="black"/>
<path d="M42.6339 4.92593L41.3966 20.1704H41.211L39.9737 4.92593H36.2307V29.8148H38.5508L38.2724 8.93926H38.4579L40.2521 29.8148H42.2009L43.9641 8.93926H44.1806L43.9022 29.8148H46.2222V4.92593H42.6339Z" fill="black"/>
<path d="M51.8787 29.8148H54.1677L52.5901 4.92593H48.8163L47.2387 29.8148H49.404L49.9299 19.2993H51.3837L51.8787 29.8148ZM50.0536 17.2148L50.5485 7.25926H50.796L51.26 17.2148H50.0536Z" fill="black"/>
<path d="M57.9856 4.92593H55.2016V29.8148H57.5216V14.9748H57.8928C60.1509 14.9748 61.2027 13.7615 61.2027 10.9926V8.90815C61.2027 6.13926 60.3365 4.92593 57.9856 4.92593ZM58.8827 11.7393C58.8827 12.6726 58.6042 12.9837 57.9237 12.9837H57.5216V7.13481H57.9237C58.6042 7.13481 58.8827 7.44592 58.8827 8.41037V11.7393Z" fill="black"/>
<path d="M67.1225 14.0415L69.1332 4.92593H66.7513L64.7097 15.7526H64.4622L64.7716 10.1526V4.92593H62.4516V29.8148H64.7716V20.1393L65.3284 17.8059H65.514L65.6686 19.9526L67.0606 29.8148H69.4425L67.1225 14.0415Z" fill="black"/>
<path d="M72.5049 27.6059V17.1526H74.6393V14.9437H72.5049V7.13481H74.794V4.92593H70.1849V29.8148H74.9487V27.6059H72.5049Z" fill="black"/>
<path d="M81.4263 4.92593H75.2396V7.13481H77.1884V29.8148H79.5084V7.13481H81.4263V4.92593Z" fill="black"/>
<path d="M89.4117 4.92593H86.5967L84.3695 23.4059H84.153L84.5861 4.92593H82.3589V29.8148H85.1738L87.401 11.3348H87.6175L87.1535 29.8148H89.4117V4.92593Z" fill="black"/>
<path d="M95.0766 4.92593V14.9437H93.5299V4.92593H91.2099V29.8148H93.5299V17.1526H95.0766V29.8148H97.3966V4.92593H95.0766Z" fill="black"/>
<path d="M103.794 4.92593H99.1849V29.8148H101.505V7.13481H103.794V4.92593Z" fill="black"/>
<defs>
<linearGradient id="paint0_linear_279_577" x1="-8.13721e-10" y1="18" x2="228.5" y2="17" gradientUnits="userSpaceOnUse">
<stop stop-color="#65F0F4"/>
<stop offset="1" stop-color="#6584F4"/>
</linearGradient>
</defs>
</svg>
