<svg width="116" height="116" viewBox="0 0 116 116" fill="none" xmlns="http://www.w3.org/2000/svg">
<path d="M58 116C42.5075 116 27.9426 109.967 16.988 99.0122C6.03292 88.0574 0 73.4922 0 58C0 42.5078 6.03292 27.9426 16.988 16.9878C27.9426 6.03292 42.5075 0 58 0C73.4925 0 88.0574 6.03292 99.012 16.9878C109.967 27.9426 116 42.5078 116 58C116 73.4922 109.967 88.0574 99.012 99.0122C88.0574 109.967 73.4925 116 58 116ZM58 4.62151C28.567 4.62151 4.62151 28.567 4.62151 58C4.62151 87.433 28.567 111.378 58 111.378C87.433 111.378 111.378 87.433 111.378 58C111.378 28.567 87.433 4.62151 58 4.62151Z" fill="url(#paint0_linear_184_126)"/>
<path d="M44.8596 92.6614C43.5594 92.6614 42.2647 92.3392 41.1153 91.7301C38.494 90.3402 36.8656 87.6336 36.8656 84.6668V31.3332C36.8656 28.3664 38.494 25.6598 41.1151 24.2701C43.7362 22.8807 46.8901 23.051 49.346 24.7161L88.6822 51.3827C90.8793 52.872 92.1909 55.3459 92.1909 58C92.1909 60.6539 90.8793 63.1278 88.6822 64.6173L49.346 91.2841C48.0173 92.1851 46.4659 92.6614 44.8596 92.6614ZM44.8606 27.959C44.3196 27.959 43.7773 28.0893 43.28 28.3532C42.1741 28.9397 41.4871 30.0814 41.4871 31.3332V84.6668C41.4871 85.9186 42.1741 87.0605 43.28 87.6468C43.765 87.9037 44.3113 88.0398 44.8596 88.0398C45.5376 88.0398 46.192 87.839 46.7524 87.4589L86.0889 60.7921C87.0157 60.1636 87.5691 59.12 87.5691 58C87.5691 56.88 87.0157 55.8364 86.0889 55.2081L46.7526 28.5413C46.1823 28.1547 45.5228 27.959 44.8606 27.959Z" fill="url(#paint1_linear_184_126)"/>
<path d="M66.0904 14.5666C65.9578 14.5666 65.8233 14.5552 65.6881 14.5314C60.793 13.6723 55.6537 13.6466 50.7512 14.4566C49.4911 14.6652 48.3024 13.8126 48.0947 12.5534C47.8867 11.2943 48.7387 10.1049 49.9978 9.89697C55.4122 9.00248 61.0814 9.03044 66.4872 9.9797C67.744 10.2004 68.5842 11.3983 68.3635 12.6553C68.1666 13.777 67.1913 14.5666 66.0904 14.5666Z" fill="url(#paint2_linear_184_126)"/>
<path d="M101.637 44.3668C100.694 44.3668 99.8092 43.7854 99.4665 42.8486C95.6838 32.4985 88.2088 23.9797 78.4188 18.8611C77.2877 18.2698 76.8502 16.8736 77.4416 15.7427C78.0331 14.6116 79.429 14.1742 80.5599 14.7655C91.3724 20.4185 99.6285 29.8284 103.807 41.262C104.245 42.4606 103.629 43.7875 102.43 44.2256C102.169 44.3212 101.9 44.3668 101.637 44.3668Z" fill="url(#paint3_linear_184_126)"/>
<defs>
<linearGradient id="paint0_linear_184_126" x1="2.98654e+09" y1="-3.91666e+23" x2="1.39148e+09" y2="-3.91666e+23" gradientUnits="userSpaceOnUse">
<stop stop-color="#65F0F4"/>
<stop offset="1" stop-color="#3957ED"/>
</linearGradient>
<linearGradient id="paint1_linear_184_126" x1="2.98654e+09" y1="-3.91666e+23" x2="1.39148e+09" y2="-3.91666e+23" gradientUnits="userSpaceOnUse">
<stop stop-color="#65F0F4"/>
<stop offset="1" stop-color="#3957ED"/>
</linearGradient>
<linearGradient id="paint2_linear_184_126" x1="2.98654e+09" y1="-3.91666e+23" x2="1.39148e+09" y2="-3.91666e+23" gradientUnits="userSpaceOnUse">
<stop stop-color="#65F0F4"/>
<stop offset="1" stop-color="#3957ED"/>
</linearGradient>
<linearGradient id="paint3_linear_184_126" x1="2.98654e+09" y1="-3.91666e+23" x2="1.39148e+09" y2="-3.91666e+23" gradientUnits="userSpaceOnUse">
<stop stop-color="#65F0F4"/>
<stop offset="1" stop-color="#3957ED"/>
</linearGradient>
</defs>
</svg>
